
<svg version="1.1" id="Layer_1" xmlns="http://www.w3.org/2000/svg" xmlns:xlink="http://www.w3.org/1999/xlink" x="0px" y="0px"
	 viewBox="0 0 358 336" enable-background="new 0 0 358 336" xml:space="preserve">
<path fill="white" d="M185.9,159.6L44,88.8l141.9-71.1l141.6,71.1L185.9,159.6z M279.8,206.1l21.3-10.8v21.6L279.8,206.1z
	 M188.3,304.8v-24L306.2,222v-34.8L188.3,246v-82.8l142.2-71.1v141.6L188.3,304.8z M185.9,276.9l-24-12l112.2-56.1l24,12
	L185.9,276.9z M73.7,162l23.7-12l56.7,28.2v24L73.7,162z M70.4,158.1v-21.6L92,147.3L70.4,158.1z M158.9,260.7v-21l21.6,10.8
	L158.9,260.7z M70.4,246.3v-51l51,25.5L70.4,246.3z"/>
</svg>
